<svg xmlns="http://www.w3.org/2000/svg" width="382" height="319" style="shape-rendering:geometricPrecision;text-rendering:geometricPrecision;image-rendering:optimizeQuality;fill-rule:evenodd;clip-rule:evenodd"><path fill="#fe877b" d="M210.5-.5h16c2.667 1.333 5.333 1.333 8 0h3c58.966 8.227 102.466 38.56 130.5 91 1.595 3.488 2.095 6.988 1.5 10.5-10.995.5-21.995.667-33 .5l-36-24c9.025.332 18.025-.002 27-1-27.57-36.114-64.237-53.448-110-52a774.006 774.006 0 0 1-31-21c7.998-1.991 15.998-3.324 24-4Z" style="opacity:.909"/><path fill="#f77f79" d="M169.5 1.5a503.096 503.096 0 0 0 36 23c-9.427 1.466-18.76 3.8-28 7l-44-29a654.45 654.45 0 0 1 36-1Z" style="opacity:.936"/><path fill="#fa827a" d="M169.5 1.5a34.39 34.39 0 0 1 11 3 19.062 19.062 0 0 1 6-1 774.006 774.006 0 0 0 31 21h-12a503.096 503.096 0 0 1-36-23Z" style="opacity:.858"/><path fill="#f47b78" d="m133.5 2.5 44 29a31.686 31.686 0 0 1-6 2l-44-29c1.714-1.238 3.714-1.905 6-2Z" style="opacity:.947"/><path fill="#f17977" d="m127.5 4.5 44 29a167694 167694 0 0 0-12 6 919.098 919.098 0 0 1-48-32 84.68 84.68 0 0 1 16-3Z" style="opacity:.957"/><path fill="#ef7776" d="M111.5 7.5a919.098 919.098 0 0 0 48 32 5.728 5.728 0 0 1-3 1 1897.057 1897.057 0 0 1-49-31c1.171-.845 2.505-1.511 4-2Z" style="opacity:.95"/><path fill="#ee7575" d="M107.5 9.5a1897.057 1897.057 0 0 0 49 31c-1.618 1.816-3.618 3.15-6 4a207.565 207.565 0 0 1-21-13c1.35-1.323 1.183-2.323-.5-3-1.138.49-2.305.823-3.5 1a262.876 262.876 0 0 0-26-17c2.292-1.767 4.958-2.767 8-3Z" style="opacity:.915"/><path fill="#eb7274" d="M99.5 12.5a262.876 262.876 0 0 1 26 17 108.924 108.924 0 0 0-14 4l-24-16c3.713-2.185 7.713-3.852 12-5Z" style="opacity:.922"/><path fill="#e86f73" d="m87.5 17.5 24 16-10 4a404.913 404.913 0 0 0-23-15c2.508-2.424 5.508-4.09 9-5Z" style="opacity:.919"/><path fill="#e66b72" d="M78.5 22.5a404.913 404.913 0 0 1 23 15 54.304 54.304 0 0 1-9 4 239.76 239.76 0 0 0-22-14 24.768 24.768 0 0 1 8-5Z" style="opacity:.925"/><path fill="#e26871" d="M70.5 27.5a239.76 239.76 0 0 1 22 14c-3.963 2.654-7.963 5.32-12 8-6.638-5.385-13.638-10.051-21-14 3.107-3.392 6.774-6.058 11-8Z" style="opacity:.929"/><path fill="#f78079" d="M209.5 27.5a10076.413 10076.413 0 0 1 113 74h-37a76.515 76.515 0 0 0-14-9 144.74 144.74 0 0 0-12.5-19A228.571 228.571 0 0 1 241.5 55a180.696 180.696 0 0 0-41-24 21.567 21.567 0 0 1 9-3.5Z" style="opacity:.877"/><path fill="#fa827a" d="M209.5 27.5a89.367 89.367 0 0 0 15 1 1561.243 1561.243 0 0 0 56 36 228.93 228.93 0 0 1 9 12.5 60.94 60.94 0 0 0 11 .5l36 24h-14a10076.413 10076.413 0 0 0-113-74Z" style="opacity:.93"/><path fill="#fb847b" d="M224.5 28.5c8.247-.303 16.247.864 24 3.5 12.228 9.394 22.894 20.227 32 32.5a1561.243 1561.243 0 0 1-56-36Z" style="opacity:.853"/><path fill="#eb7274" d="M129.5 31.5a207.565 207.565 0 0 0 21 13c-3.31 2.3-6.643 4.634-10 7a156.857 156.857 0 0 1-20-13 45.75 45.75 0 0 1 9-7Z" style="opacity:.926"/><path fill="#df6470" d="M59.5 35.5c7.362 3.949 14.362 8.615 21 14-1.17 1.779-2.836 2.779-5 3a343.685 343.685 0 0 0-21-13c.944-2.188 2.611-3.521 5-4Z" style="opacity:.912"/><path fill="#e86f73" d="M120.5 38.5a156.857 156.857 0 0 0 20 13c-2.308 1.97-4.642 3.97-7 6-6.694-4.011-13.361-8.011-20-12 2-2.667 4.333-5 7-7Z" style="opacity:.93"/><path fill="#dc616e" d="M54.5 39.5a343.685 343.685 0 0 1 21 13 1481.19 1481.19 0 0 1-10 9l-20-13a57.458 57.458 0 0 1 9-9Z" style="opacity:.938"/><path fill="#e66b72" d="M113.5 45.5c6.639 3.989 13.306 7.989 20 12a502.076 502.076 0 0 0-6 6c-6.694-4.011-13.361-8.011-20-12 .69-3.356 2.69-5.356 6-6Z" style="opacity:.91"/><path fill="#da5e6e" d="m45.5 48.5 20 13c-.333 1-1 1.667-2 2-6.703-4.347-13.37-8.68-20-13 .333-1 1-1.667 2-2Z" style="opacity:.932"/><path fill="#d75a6c" d="M43.5 50.5c6.63 4.32 13.297 8.653 20 13-3.695 4.026-7.362 8.026-11 12a100.131 100.131 0 0 0-20-13c2.907-4.58 6.574-8.58 11-12Z" style="opacity:.92"/><path fill="#e26871" d="M107.5 51.5c6.639 3.989 13.306 7.989 20 12a6913.86 6913.86 0 0 0-9 10c-5.636-2.494-10.636-5.994-15-10.5a27.587 27.587 0 0 1-5-1.5 48.8 48.8 0 0 1 9-10Z" style="opacity:.908"/><path fill="#df6470" d="M98.5 61.5a27.587 27.587 0 0 0 5 1.5c4.364 4.506 9.364 8.006 15 10.5a796.928 796.928 0 0 0-4 5 283.021 283.021 0 0 0-19-13l3-4Z" style="opacity:.903"/><path fill="#d3566b" d="M32.5 62.5a100.131 100.131 0 0 1 20 13 26.694 26.694 0 0 1-5 7 156.892 156.892 0 0 0-20-13 26.694 26.694 0 0 1 5-7Z" style="opacity:.921"/><path fill="#dc616e" d="M95.5 65.5a283.021 283.021 0 0 1 19 13 40.608 40.608 0 0 1-7 10l-19-12a59.606 59.606 0 0 1 7-11Z" style="opacity:.899"/><path fill="#d0526a" d="M27.5 69.5a156.892 156.892 0 0 1 20 13 914.972 914.972 0 0 1-4 6l-20-13c.84-2.353 2.174-4.353 4-6Z" style="opacity:.923"/><path fill="#ce5168" d="m23.5 75.5 20 13-1 2a343.685 343.685 0 0 0-21-13c.333-1 1-1.667 2-2Z" style="opacity:.919"/><path fill="#da5e6e" d="m88.5 76.5 19 12a5.727 5.727 0 0 1-1 3 190.81 190.81 0 0 1-19-13c-.172-.992.162-1.658 1-2Z" style="opacity:.905"/><path fill="#cb4d68" d="M21.5 77.5a343.685 343.685 0 0 1 21 13 163.18 163.18 0 0 0-8 15 215.331 215.331 0 0 0-21-13 56.025 56.025 0 0 1 8-15Z" style="opacity:.917"/><path fill="#d75a6c" d="M87.5 78.5a190.81 190.81 0 0 0 19 13 73.818 73.818 0 0 0-7 13 267.492 267.492 0 0 0-19-11c1.544-5.42 3.878-10.42 7-15Z" style="opacity:.905"/><path fill="#c84966" d="M13.5 92.5a215.331 215.331 0 0 1 21 13c-.296 1.903-.962 3.57-2 5l-21-12a31.705 31.705 0 0 1 2-6Z" style="opacity:.913"/><path fill="#f47b78" d="M271.5 92.5a76.515 76.515 0 0 1 14 9 72.032 72.032 0 0 1-11-1 20.53 20.53 0 0 0-3-8Z" style="opacity:.516"/><path fill="#d3566b" d="M80.5 93.5a267.492 267.492 0 0 1 19 11c-1.35 3.072-2.683 6.072-4 9l-18-13c.435-2.657 1.435-4.99 3-7Z" style="opacity:.916"/><path fill="#c54665" d="m11.5 98.5 21 12c-.962 3.895-2.296 7.561-4 11a337.642 337.642 0 0 0-21-13c.82-3.627 2.154-6.96 4-10Z" style="opacity:.914"/><path fill="#d0526a" d="m77.5 100.5 18 13a21.16 21.16 0 0 1-2 7l-19-12c.629-2.897 1.629-5.564 3-8Z" style="opacity:.911"/><path fill="#c24264" d="M7.5 108.5a337.642 337.642 0 0 1 21 13 128.865 128.865 0 0 1-2 11l-22-13a103.668 103.668 0 0 1 3-11Z" style="opacity:.92"/><path fill="#ce5168" d="m74.5 108.5 19 12c.237 1.291-.096 2.291-1 3a190.759 190.759 0 0 0-19-13l1-2Z" style="opacity:.898"/><path fill="#cb4d68" d="M73.5 110.5a190.759 190.759 0 0 1 19 13 380.397 380.397 0 0 0-3 17c-6.694-4.011-13.361-8.011-20-12a175.381 175.381 0 0 1 4-18Z" style="opacity:.914"/><path fill="#c14064" d="m4.5 119.5 22 13-1 4-22-14a5.728 5.728 0 0 1 1-3Z" style="opacity:.919"/><path fill="#c03f63" d="m3.5 122.5 22 14c.067 1.459-.266 2.792-1 4l-22-13a20.675 20.675 0 0 1 1-5Z" style="opacity:.922"/><path fill="#bd3b62" d="m2.5 127.5 22 13c-.665 6.98-.998 13.98-1 21a416.493 416.493 0 0 0-23-15 83.63 83.63 0 0 1 2-19Z" style="opacity:.936"/><path fill="#c84966" d="M69.5 128.5c6.639 3.989 13.306 7.989 20 12a51.648 51.648 0 0 0-1 7l-20-13 1-6Z" style="opacity:.932"/><path fill="#c54665" d="m68.5 134.5 20 13v13a343.784 343.784 0 0 0-21-13c.087-4.357.42-8.69 1-13Z" style="opacity:.923"/><path fill="#ba3960" d="M.5 146.5a416.493 416.493 0 0 1 23 15v3a272.508 272.508 0 0 1-23-15v-3Z" style="opacity:.964"/><path fill="#c24264" d="M67.5 147.5a343.784 343.784 0 0 1 21 13 61.254 61.254 0 0 0 1 13 7304.285 7304.285 0 0 0-22-13v-13Z" style="opacity:.949"/><path fill="#b6325f" d="M-.5 149.5h1a272.508 272.508 0 0 0 23 15c4.72 58.023 33.72 98.189 87 120.5a73.863 73.863 0 0 0 16 4c22.531 1.599 44.864.266 67-4a70.527 70.527 0 0 0 11-3.5 504.153 504.153 0 0 1 25 17c-36.528 18.484-74.528 22.651-114 12.5C60.881 294.047 24.381 258.547 6 204.5c-3.16-11.97-5.326-23.97-6.5-36v-19Z" style="opacity:.922"/><path fill="#c14064" d="M67.5 160.5c7.316 4.306 14.65 8.639 22 13v4a231.547 231.547 0 0 1-22-14v-3Z" style="opacity:.965"/><path fill="#c03f63" d="M67.5 163.5a231.547 231.547 0 0 0 22 14c.907 2.157 1.573 4.49 2 7a223.627 223.627 0 0 0-24-15v-6Z" style="opacity:.93"/><path fill="#d3566b" d="m195.5 166.5 35 24h-16a563.582 563.582 0 0 0-27-18v-6h8Z" style="opacity:.91"/><path fill="#d75a6c" d="M195.5 166.5h28l35 24h-28l-35-24Z" style="opacity:.899"/><path fill="#da5e6e" d="M223.5 166.5h5l36 24h-6l-35-24Z" style="opacity:.9"/><path fill="#dc616e" d="M228.5 166.5h24a2321.254 2321.254 0 0 0 55 36 42.4 42.4 0 0 1-4 12 7367.169 7367.169 0 0 1-22-13 63.055 63.055 0 0 1 3-10.5c-6.658-.5-13.325-.666-20-.5l-36-24Z" style="opacity:.912"/><path fill="#df6470" d="M252.5 166.5h10a294.322 294.322 0 0 0 39 24.5 63.707 63.707 0 0 0 7 6.5c.134 1.792-.199 3.458-1 5a2321.254 2321.254 0 0 1-55-36Z" style="opacity:.942"/><path fill="#e26771" d="M262.5 166.5h25a1101.827 1101.827 0 0 0 37 25h-14c-.095 2.286-.762 4.286-2 6a63.707 63.707 0 0 1-7-6.5 294.322 294.322 0 0 1-39-24.5Z" style="opacity:.91"/><path fill="#e66b72" d="M287.5 166.5h15a1101.827 1101.827 0 0 0 37 25h-15a1101.827 1101.827 0 0 1-37-25Z" style="opacity:.903"/><path fill="#e86e73" d="M302.5 166.5h16a905.52 905.52 0 0 0 59 38c-.428 3.285-1.428 6.285-3 9l-22-14c1.265-2.504 1.599-5.004 1-7.5a98.432 98.432 0 0 0-14-.5 1101.827 1101.827 0 0 1-37-25Z" style="opacity:.899"/><path fill="#eb7274" d="M318.5 166.5h20a54025.7 54025.7 0 0 0 42 27c-.555 3.897-1.555 7.563-3 11a905.52 905.52 0 0 1-59-38Z" style="opacity:.931"/><path fill="#ee7575" d="M338.5 166.5h13a468.8 468.8 0 0 0 30 20v5c-.838.342-1.172 1.008-1 2a54025.7 54025.7 0 0 1-42-27Z" style="opacity:.904"/><path fill="#ef7776" d="M351.5 166.5h6a229.098 229.098 0 0 0 24 16v4a468.8 468.8 0 0 1-30-20Z" style="opacity:.878"/><path fill="#f17877" d="M357.5 166.5h24v16a229.098 229.098 0 0 1-24-16Z" style="opacity:.773"/><path fill="#bd3b62" d="M67.5 169.5a223.627 223.627 0 0 1 24 15 195.967 195.967 0 0 0 8 26 657.289 657.289 0 0 0-29-18 243.58 243.58 0 0 1-3-23Z" style="opacity:.916"/><path fill="#d0536a" d="M187.5 172.5a563.582 563.582 0 0 1 27 18h-14a133.329 133.329 0 0 0-13-9c-1.051-3.156-1.051-6.156 0-9Z" style="opacity:.876"/><path fill="#ce5168" d="M187.5 181.5a133.329 133.329 0 0 1 13 9h-4a24.766 24.766 0 0 0-8-5c-.734-1.208-1.067-2.541-1-4Z" style="opacity:.814"/><path fill="#cd5069" d="M188.5 185.5a24.766 24.766 0 0 1 8 5h-8v-5Z" style="opacity:.684"/><path fill="#ba3960" d="M70.5 192.5a657.289 657.289 0 0 1 29 18c1.174 1.014 1.84 2.347 2 4l-30-18c.067-1.459-.266-2.792-1-4Z" style="opacity:.917"/><path fill="#b7335f" d="m71.5 196.5 30 18c10.424 21.301 25.424 38.801 45 52.5a324.208 324.208 0 0 0 30 16c-.93.991-2.096 1.491-3.5 1.5a882.182 882.182 0 0 0-43.5-1.5c-29.692-21.884-49.026-50.717-58-86.5Z" style="opacity:.911"/><path fill="#e66b72" d="m352.5 199.5 22 14c-.48 2.943-1.48 5.61-3 8l-22-14 3-8Z" style="opacity:.889"/><path fill="#da5e6e" d="M281.5 201.5a7367.169 7367.169 0 0 0 22 13 5.727 5.727 0 0 1-1 3l-22-13c-.237-1.291.096-2.291 1-3Z" style="opacity:.912"/><path fill="#d75a6c" d="m280.5 204.5 22 13-7 14a337.406 337.406 0 0 1-21-13 65.738 65.738 0 0 1 6-14Z" style="opacity:.924"/><path fill="#e26871" d="m349.5 207.5 22 14c-1.492 4.318-3.492 8.318-6 12a60.82 60.82 0 0 1-13-9.5 114.353 114.353 0 0 1-8-3.5c1.953-4.237 3.62-8.57 5-13Z" style="opacity:.899"/><path fill="#d3566b" d="M274.5 218.5a337.406 337.406 0 0 0 21 13c-1.18 3.04-2.847 5.706-5 8l-20-14a36.077 36.077 0 0 1 4-7Z" style="opacity:.925"/><path fill="#df6470" d="M344.5 220.5a114.353 114.353 0 0 0 8 3.5 60.82 60.82 0 0 0 13 9.5 16.339 16.339 0 0 1-2 5 116.374 116.374 0 0 1-21-14c.16-1.653.826-2.986 2-4Z" style="opacity:.906"/><path fill="#dc616e" d="M342.5 224.5a116.374 116.374 0 0 0 21 14 94.09 94.09 0 0 1-7 11 340.978 340.978 0 0 1-21-14 91.679 91.679 0 0 1 7-11Z" style="opacity:.9"/><path fill="#d0526a" d="m270.5 225.5 20 14c-.84 2.353-2.174 4.353-4 6l-20-13a36.077 36.077 0 0 1 4-7Z" style="opacity:.928"/><path fill="#ce5168" d="m266.5 232.5 20 13c.172.992-.162 1.658-1 2a343.54 343.54 0 0 0-21-13c.333-1 1-1.667 2-2Z" style="opacity:.928"/><path fill="#cb4d68" d="M264.5 234.5a343.54 343.54 0 0 1 21 13 49.074 49.074 0 0 1-10 13 343.54 343.54 0 0 1-21-13c3.364-4.357 6.698-8.691 10-13Z" style="opacity:.934"/><path fill="#da5e6e" d="M335.5 235.5a340.978 340.978 0 0 0 21 14c-.333 1-1 1.667-2 2a337.406 337.406 0 0 1-21-13c-.073-1.527.594-2.527 2-3Z" style="opacity:.897"/><path fill="#d75a6c" d="M333.5 238.5a337.406 337.406 0 0 0 21 13c-2.296 5.262-5.963 9.262-11 12a156.846 156.846 0 0 0-20-13 86.79 86.79 0 0 1 10-12Z" style="opacity:.911"/><path fill="#c84966" d="M254.5 247.5a343.54 343.54 0 0 0 21 13c-1.333 2-3 3.667-5 5a208.14 208.14 0 0 1-20-14c1.027-1.694 2.361-3.027 4-4Z" style="opacity:.93"/><path fill="#d3566b" d="M323.5 250.5a156.846 156.846 0 0 1 20 13 25.658 25.658 0 0 1-6 6c-6.63-4.32-13.297-8.653-20-13a25.658 25.658 0 0 1 6-6Z" style="opacity:.939"/><path fill="#c54665" d="M250.5 251.5a208.14 208.14 0 0 0 20 14c-2.333 3-5 5.667-8 8l-20-14c3.562-1.807 6.228-4.473 8-8Z" style="opacity:.934"/><path fill="#d0526a" d="M317.5 256.5c6.703 4.347 13.37 8.68 20 13-1.333 2-3 3.667-5 5a100.148 100.148 0 0 1-20-13c1.333-2 3-3.667 5-5Z" style="opacity:.942"/><path fill="#c24264" d="m242.5 259.5 20 14c-2.069 3.073-4.736 5.406-8 7l-20-13c2.333-3 5-5.667 8-8Z" style="opacity:.927"/><path fill="#ce5168" d="M312.5 261.5a100.148 100.148 0 0 0 20 13c-.333 1-1 1.667-2 2a337.406 337.406 0 0 0-21-13c.473-1.406 1.473-2.073 3-2Z" style="opacity:.908"/><path fill="#cb4d68" d="M309.5 263.5a337.406 337.406 0 0 1 21 13 40.248 40.248 0 0 1-9 8.5 19.177 19.177 0 0 1-5 2.5 340.978 340.978 0 0 1-21-14 106.308 106.308 0 0 1 14-10Z" style="opacity:.924"/><path fill="#c14064" d="m234.5 267.5 20 13c-.333 1-1 1.667-2 2a207.583 207.583 0 0 1-21-13c.473-1.406 1.473-2.073 3-2Z" style="opacity:.946"/><path fill="#c03f63" d="M231.5 269.5a207.583 207.583 0 0 0 21 13c-.936 1.474-2.27 2.474-4 3a116.374 116.374 0 0 1-21-14c1.014-1.174 2.347-1.84 4-2Z" style="opacity:.937"/><path fill="#bd3b62" d="M227.5 271.5a116.374 116.374 0 0 0 21 14 75.68 75.68 0 0 1-17 11 300.094 300.094 0 0 0-24-16 135.782 135.782 0 0 1 20-9Z" style="opacity:.923"/><path fill="#c84966" d="M295.5 273.5a340.978 340.978 0 0 0 21 14c-1.647 1.826-3.647 3.16-6 4a187.584 187.584 0 0 0-22-14c1.836-2.088 4.169-3.421 7-4Z" style="opacity:.92"/><path fill="#c54665" d="M288.5 277.5a187.584 187.584 0 0 1 22 14c-2.661 3.002-5.995 5.002-10 6a405.243 405.243 0 0 1-23-15 83.183 83.183 0 0 1 11-5Z" style="opacity:.921"/><path fill="#ba3960" d="M207.5 280.5a300.094 300.094 0 0 1 24 16c-.333 1-1 1.667-2 2a504.153 504.153 0 0 0-25-17 5.727 5.727 0 0 1 3-1Z" style="opacity:.938"/><path fill="#c24264" d="M277.5 282.5a405.243 405.243 0 0 0 23 15 86.664 86.664 0 0 1-11 6 474.688 474.688 0 0 0-25-16 114.067 114.067 0 0 1 13-5Z" style="opacity:.924"/><path fill="#c14064" d="M260.5 288.5c1.068-.934 2.401-1.268 4-1a474.688 474.688 0 0 1 25 16c-1.208.734-2.541 1.067-4 1a487.096 487.096 0 0 1-25-16Z" style="opacity:.921"/><path fill="#c03f63" d="M260.5 288.5a487.096 487.096 0 0 0 25 16c-1.28 1.431-2.947 2.098-5 2-8.703-5.68-17.37-11.347-26-17a19.22 19.22 0 0 1 6-1Z" style="opacity:.92"/><path fill="#bd3b62" d="M254.5 289.5c8.63 5.653 17.297 11.32 26 17-6.96 3.245-14.293 5.578-22 7l-21-14a72.598 72.598 0 0 1 17-10Z" style="opacity:.919"/><path fill="#ba3960" d="m237.5 299.5 21 14h-4a185.131 185.131 0 0 1-20-12c.473-1.406 1.473-2.073 3-2Z" style="opacity:.916"/><path fill="#b83560" d="M234.5 301.5a185.131 185.131 0 0 0 20 12 117640.17 117640.17 0 0 0-34 5h-1c-4.661-.681-9.328-1.847-14-3.5a94464.54 94464.54 0 0 1 29-13.5Z" style="opacity:.819"/></svg>